<svg height="512pt" viewBox="0 0 512 512" width="512pt" xmlns="http://www.w3.org/2000/svg"><path d="m416 512h-320c-53.023438 0-96-42.976562-96-96v-320c0-53.023438 42.976562-96 96-96h320c53.023438 0 96 42.976562 96 96v320c0 53.007812-42.992188 96-96 96zm0 0" fill="#ffe6e2"/><path d="m383.328125 255.328125c0 70.691406-57.308594 128-128 128s-128-57.308594-128-128 57.308594-128 128-128 128 57.308594 128 128zm0 0" fill="#fc573b"/><path d="m307.855469 238.078125c-1.648438 3.984375-5.535157 6.578125-9.855469 6.578125h-32v74.671875c0 5.886719-4.785156 10.671875-10.671875 10.671875s-10.671875-4.785156-10.671875-10.671875v-74.671875h-32c-4.320312 0-8.207031-2.59375-9.855469-6.578125-1.648437-3.980469-.738281-8.574219 2.320313-11.628906l42.671875-42.671875c4.160156-4.160156 10.910156-4.160156 15.085937 0l42.671875 42.671875c3.042969 3.054687 3.953125 7.648437 2.304688 11.628906zm0 0" fill="#fd907e"/></svg>